<?xml version="1.0" encoding="UTF-8" standalone="no"?>
<!DOCTYPE svg PUBLIC "-//W3C//DTD SVG 1.1//EN" "http://www.w3.org/Graphics/SVG/1.1/DTD/svg11.dtd">
<svg version="1.1" xmlns="http://www.w3.org/2000/svg" xmlns:xlink="http://www.w3.org/1999/xlink" preserveAspectRatio="xMidYMid meet" viewBox="296.9886666203896 116.01799525420434 43.20753394888169 77.16066719038177" width="39.21" height="73.16"><defs><path d="M319.69 117.03L319.79 117.05L319.89 117.07L319.99 117.1L320.09 117.14L320.19 117.18L320.28 117.23L320.36 117.28L320.45 117.34L320.53 117.4L320.61 117.47L320.68 117.54L320.74 117.62L320.81 117.7L320.87 117.78L320.92 117.87L320.97 117.96L321.01 118.05L321.04 118.15L321.07 118.25L321.1 118.35L321.11 118.46L321.12 118.57L321.13 118.67L321.13 125.23L323.93 127.63L324.31 127.95L324.68 128.28L325.04 128.61L325.4 128.95L325.76 129.29L326.11 129.63L326.46 129.98L326.8 130.33L327.14 130.69L327.48 131.05L327.81 131.41L328.13 131.78L328.46 132.16L328.77 132.53L329.09 132.91L329.39 133.3L329.7 133.69L330 134.08L330.29 134.47L330.4 134.62L330.74 135.09L331.07 135.57L331.4 136.05L331.72 136.54L332.03 137.03L332.33 137.53L332.63 138.03L332.92 138.54L333.2 139.05L333.47 139.57L333.73 140.09L333.99 140.61L334.24 141.14L334.48 141.67L334.71 142.2L334.93 142.74L335.15 143.28L335.35 143.83L335.55 144.38L335.94 145.56L336.27 146.75L336.56 147.94L336.79 149.15L336.97 150.36L337.09 151.58L337.17 152.79L337.2 154.01L337.17 155.23L337.09 156.44L336.97 157.66L336.79 158.86L336.56 160.06L336.28 161.25L335.95 162.43L335.57 163.59L335.14 164.75L334.66 165.88L334.12 167L331.81 171.62L333.69 165.92L333.87 165.37L334.03 164.82L334.18 164.26L334.31 163.71L334.44 163.15L334.55 162.59L334.64 162.02L334.73 161.46L334.8 160.89L334.86 160.32L334.9 159.75L334.94 159.18L334.96 158.61L334.96 158.04L334.96 157.47L334.94 156.9L334.91 156.32L334.86 155.75L334.8 155.18L334.67 154.21L334.49 153.25L334.27 152.3L334.01 151.36L333.71 150.45L333.37 149.54L332.98 148.66L332.56 147.79L332.1 146.95L331.6 146.13L331.07 145.33L330.49 144.55L329.89 143.81L329.25 143.08L328.57 142.39L327.87 141.73L327.13 141.09L326.36 140.49L325.56 139.92L321.13 136.94L321.13 177.16L321.12 177.27L321.11 177.38L321.1 177.46L321.1 177.82L320.89 178.93L320.5 180.08L319.93 181.23L319.19 182.38L318.29 183.52L317.24 184.62L316.05 185.68L314.72 186.68L313.27 187.59L311.75 188.39L310.23 189.05L308.71 189.55L307.23 189.91L305.8 190.12L304.43 190.18L303.15 190.09L301.96 189.86L300.9 189.49L299.97 188.96L299.19 188.29L298.59 187.47L298.18 186.54L297.99 185.53L298 184.47L298.21 183.36L298.6 182.22L299.17 181.06L299.9 179.91L300.8 178.77L301.85 177.67L303.05 176.61L304.37 175.61L305.83 174.7L307.35 173.9L308.87 173.25L310.38 172.74L311.86 172.39L313.3 172.18L314.67 172.11L315.95 172.2L317.13 172.43L317.81 172.67L317.81 118.67L317.82 118.57L317.83 118.46L317.85 118.35L317.87 118.25L317.9 118.15L317.93 118.05L317.98 117.96L318.02 117.87L318.08 117.78L318.13 117.7L318.2 117.62L318.26 117.54L318.34 117.47L318.41 117.4L318.49 117.34L318.58 117.28L318.66 117.23L318.76 117.18L318.85 117.14L318.95 117.1L319.05 117.07L319.15 117.05L319.25 117.03L319.36 117.02L319.47 117.02L319.58 117.02L319.69 117.03Z" id="a3I9TYxsAv"></path></defs><g><g><use xlink:href="#a3I9TYxsAv" opacity="1" fill="#802dd0" fill-opacity="1"></use></g></g></svg>